<?xml version="1.0" encoding="utf-8"?>
<svg xmlns="http://www.w3.org/2000/svg" viewBox="0 20 200 200" width="200px" height="200px"><path d="M 190 110 C 190 145.17 167.305 175.039 135.762 185.762 C 138.51 177.678 140 169.013 140 160 C 140 115.817 104.183 80 60 80 C 50.987 80 42.322 81.49 34.238 84.238 C 44.961 52.694 74.83 30 110 30 C 117.176 30 124.132 30.945 130.749 32.717 C 138.05 24.892 148.454 20 160 20 C 182.091 20 200 37.909 200 60 C 200 71.546 195.108 81.95 187.283 89.251 C 189.055 95.868 190 102.824 190 110 Z M 120 160 C 120 193.137 93.137 220 60 220 C 26.863 220 0 193.137 0 160 C 0 126.863 26.863 100 60 100 C 93.137 100 120 126.863 120 160 Z M 60 120 C 50.3 120 41.407 123.452 34.482 129.195 C 46.873 132.005 60.067 139.324 71.352 150.609 C 81.627 160.884 88.613 172.74 91.903 184.133 C 96.985 177.425 100 169.065 100 160 C 100 137.909 82.091 120 60 120 Z" style="fill: rgb(255, 255, 255);" id="object-0"/></svg>