<?xml version="1.0" encoding="utf-8"?>
<svg xmlns="http://www.w3.org/2000/svg" viewBox="-0.01 20 200.01 200.01" width="200.01px" height="200.01px"><path d="M 200 60 C 200 71.546 195.108 81.95 187.283 89.251 C 189.055 95.868 190 102.824 190 110 C 190 151.525 158.362 185.661 117.876 189.617 C 122.43 180.735 125 170.668 125 160 C 125 124.101 95.899 95 60 95 C 49.332 95 39.265 97.57 30.383 102.124 C 34.339 61.638 68.475 30 110 30 C 117.176 30 124.132 30.945 130.749 32.717 C 138.05 24.892 148.454 20 160 20 C 182.091 20 200 37.909 200 60 Z M 111.961 130 C 128.53 158.697 118.697 195.393 90 211.962 C 61.303 228.53 24.607 218.697 8.038 190 C -8.53 161.303 1.303 124.607 30 108.039 C 58.697 91.47 95.393 101.303 111.961 130 Z M 32.5 112.369 C 30.894 113.296 29.351 114.293 27.875 115.352 C 39.407 112.539 51.982 112.52 64.503 115.875 C 89.812 122.657 108.413 141.48 114.881 163.703 C 115.601 153.174 113.304 142.326 107.631 132.5 C 92.443 106.194 58.806 97.181 32.5 112.369 Z" style="fill: rgb(255, 255, 255);" id="object-0"/></svg>